<svg xmlns="http://www.w3.org/2000/svg" width="20.999" height="18.899" viewBox="0 0 20.999 18.899">
  <path id="Icon_material-business-center" data-name="Icon material-business-center" d="M11.4,18.149V17.1H4.06l-.01,4.2a2.093,2.093,0,0,0,2.1,2.1h14.7a2.093,2.093,0,0,0,2.1-2.1V17.1H15.6v1.05ZM21.9,8.7h-4.21V6.6l-2.1-2.1h-4.2l-2.1,2.1V8.7H5.1A2.106,2.106,0,0,0,3,10.8v3.15a2.093,2.093,0,0,0,2.1,2.1h6.3v-2.1h4.2v2.1h6.3a2.106,2.106,0,0,0,2.1-2.1V10.8A2.106,2.106,0,0,0,21.9,8.7Zm-6.3,0H11.4V6.6h4.2Z" transform="translate(-3 -4.5)" fill="#fff"/>
</svg>
