<svg xmlns="http://www.w3.org/2000/svg" width="33.753" height="33.753" viewBox="0 0 33.753 33.753">
  <path id="Icon_awesome-coins" data-name="Icon awesome-coins" d="M0,26.719v2.815c0,2.327,5.669,4.219,12.657,4.219s12.657-1.892,12.657-4.219V26.719c-2.723,1.918-7.7,2.815-12.657,2.815S2.723,28.637,0,26.719ZM21.1,8.438c6.988,0,12.657-1.892,12.657-4.219S28.083,0,21.1,0,8.438,1.892,8.438,4.219,14.108,8.438,21.1,8.438ZM0,19.8v3.4c0,2.327,5.669,4.219,12.657,4.219s12.657-1.892,12.657-4.219V19.8c-2.723,2.241-7.706,3.4-12.657,3.4S2.723,22.045,0,19.8Zm27.424.725c3.777-.732,6.329-2.09,6.329-3.652V14.061a16.189,16.189,0,0,1-6.329,2.274ZM12.657,10.548C5.669,10.548,0,12.908,0,15.822S5.669,21.1,12.657,21.1s12.657-2.36,12.657-5.274S19.645,10.548,12.657,10.548Zm14.457,3.711c3.955-.712,6.639-2.11,6.639-3.711V7.733c-2.34,1.655-6.362,2.545-10.594,2.756A7.382,7.382,0,0,1,27.114,14.259Z" fill="#fff"/>
</svg>
