<svg xmlns="http://www.w3.org/2000/svg" width="33.942" height="31.331" viewBox="0 0 33.942 31.331">
  <g id="Group_3098" data-name="Group 3098" transform="translate(-52.058 -431.719)">
    <path id="Path_3848" data-name="Path 3848" d="M34.053,4.5H6.639A3.273,3.273,0,0,0,3.375,7.764v24.8a3.273,3.273,0,0,0,3.264,3.264H34.053a3.273,3.273,0,0,0,3.264-3.264V7.764A3.273,3.273,0,0,0,34.053,4.5Zm.979,14.36a1.309,1.309,0,0,1-1.305,1.305H26.645a1.3,1.3,0,0,0-1.232.865,2.447,2.447,0,0,1-2.13,1.746H17.409a2.429,2.429,0,0,1-2.13-1.746,1.3,1.3,0,0,0-1.232-.865H6.965A1.309,1.309,0,0,1,5.66,18.86V8.09A1.309,1.309,0,0,1,6.965,6.785H33.727A1.309,1.309,0,0,1,35.033,8.09Z" transform="translate(48.683 427.219)" fill="#fff"/>
    <path id="Path_3849" data-name="Path 3849" d="M30.231,11.285H9.017a1.146,1.146,0,0,1-1.142-1.142h0A1.146,1.146,0,0,1,9.017,9H30.231a1.146,1.146,0,0,1,1.142,1.142h0A1.146,1.146,0,0,1,30.231,11.285Z" transform="translate(49.405 427.941)" fill="#fff"/>
    <path id="Path_3850" data-name="Path 3850" d="M30.231,15.785H9.017a1.146,1.146,0,0,1-1.142-1.142h0A1.146,1.146,0,0,1,9.017,13.5H30.231a1.146,1.146,0,0,1,1.142,1.142h0A1.146,1.146,0,0,1,30.231,15.785Z" transform="translate(49.405 428.663)" fill="#fff"/>
  </g>
</svg>
