<svg xmlns="http://www.w3.org/2000/svg" width="11.37" height="11.37" viewBox="0 0 11.37 11.37">
  <g id="Icon_feather-settings" data-name="Icon feather-settings" transform="translate(-1 -1)">
    <path id="Path_3861" data-name="Path 3861" d="M16.328,14.914A1.414,1.414,0,1,1,14.914,13.5,1.414,1.414,0,0,1,16.328,14.914Z" transform="translate(-8.229 -8.229)" fill="none" stroke="#0072f0" stroke-linecap="round" stroke-linejoin="round" stroke-width="1"/>
    <path id="Path_3862" data-name="Path 3862" d="M10.173,8.1a.778.778,0,0,0,.156.858l.028.028A.943.943,0,1,1,9.023,10.32l-.028-.028a.784.784,0,0,0-1.329.556v.08a.943.943,0,1,1-1.886,0v-.042a.816.816,0,0,0-1.367-.556l-.028.028A.943.943,0,1,1,3.051,9.023l.028-.028a.784.784,0,0,0-.556-1.329h-.08a.943.943,0,1,1,0-1.886h.042a.816.816,0,0,0,.556-1.367l-.028-.028A.943.943,0,1,1,4.347,3.051l.028.028a.778.778,0,0,0,.858.156h.038a.778.778,0,0,0,.471-.712v-.08a.943.943,0,1,1,1.886,0v.042a.784.784,0,0,0,1.329.556l.028-.028A.943.943,0,1,1,10.32,4.347l-.028.028a.778.778,0,0,0-.156.858v.038a.778.778,0,0,0,.712.471h.08a.943.943,0,1,1,0,1.886h-.042a.778.778,0,0,0-.712.471Z" fill="none" stroke="#0072f0" stroke-linecap="round" stroke-linejoin="round" stroke-width="1"/>
  </g>
</svg>
