<svg xmlns="http://www.w3.org/2000/svg" width="302.007" height="35.712" viewBox="0 0 302.007 35.712">
  <g id="Group_3097" data-name="Group 3097" transform="translate(-234.409 -60.152)">
    <g id="Group_3094" data-name="Group 3094" transform="translate(175 5)">
      <path id="Path_3845" data-name="Path 3845" d="M94,125.8H60.409v4.347H94Zm0,29.848H60.409V160H94Zm0-14.924H60.409v4.347H94Z" transform="translate(-1 -70)" fill="#0072f0"/>
    </g>
    <g id="Group_3096" data-name="Group 3096">
      <g id="Group_3095" data-name="Group 3095" transform="translate(410 5)">
        <path id="Path_3845-2" data-name="Path 3845" d="M94,125.8H60.409v4.347H94Zm0,29.848H60.409V160H94Zm0-14.924H60.409v4.347H94Z" transform="translate(-1 -70)" fill="#0072f0"/>
      </g>
      <path id="Path_3846" data-name="Path 3846" d="M3.6-33.984H15.456a21.975,21.975,0,0,1,6.312.816,16.8,16.8,0,0,1,4.7,2.184,13.834,13.834,0,0,1,3.312,3.144,16.827,16.827,0,0,1,2.088,3.648,18.433,18.433,0,0,1,1.1,3.744,19.662,19.662,0,0,1,.336,3.456,17.082,17.082,0,0,1-1.2,6.312A15.947,15.947,0,0,1,28.56-5.256,17.5,17.5,0,0,1,22.728-1.44,20.9,20.9,0,0,1,14.688,0H3.6ZM8.208-4.32h5.808a19.033,19.033,0,0,0,5.544-.792,13.431,13.431,0,0,0,4.584-2.376,11.375,11.375,0,0,0,3.12-3.96,12.57,12.57,0,0,0,1.152-5.544,16.536,16.536,0,0,0-.528-3.816A11.424,11.424,0,0,0,25.9-24.96,11.81,11.81,0,0,0,21.84-28.3a14.372,14.372,0,0,0-6.72-1.368H8.208ZM71.28-19.008V-2.256A15.5,15.5,0,0,1,68.448-.912,30.171,30.171,0,0,1,65.16.072a27.861,27.861,0,0,1-3.456.6,30.274,30.274,0,0,1-3.288.192,19.512,19.512,0,0,1-7.7-1.44A16.893,16.893,0,0,1,45-4.464a16.752,16.752,0,0,1-3.552-5.688,19.192,19.192,0,0,1-1.224-6.84,18.642,18.642,0,0,1,1.32-7.056,17.416,17.416,0,0,1,3.648-5.664,16.656,16.656,0,0,1,5.592-3.768,18.32,18.32,0,0,1,7.152-1.368,21.172,21.172,0,0,1,7.68,1.176,14.12,14.12,0,0,1,4.992,3.24l-3.264,3.5a12.073,12.073,0,0,0-4.464-2.808,15.388,15.388,0,0,0-4.944-.792,12.509,12.509,0,0,0-5.28,1.08,12.512,12.512,0,0,0-4.032,2.9,12.805,12.805,0,0,0-2.592,4.3,15.063,15.063,0,0,0-.912,5.256,14.038,14.038,0,0,0,1.008,5.352,13.266,13.266,0,0,0,2.784,4.3,12.847,12.847,0,0,0,4.176,2.856A13.1,13.1,0,0,0,58.32-3.456a22.629,22.629,0,0,0,4.632-.456,12.987,12.987,0,0,0,3.72-1.32v-9.456H59.136v-4.32ZM92.736-33.984h4.176L111.456,0H106.08l-3.408-8.4H86.5L83.136,0H77.76Zm8.256,21.552-6.336-15.6h-.1l-6.432,15.6Zm17.28-21.552h11.952a13.973,13.973,0,0,1,5.376.888,9.142,9.142,0,0,1,3.336,2.256,7.685,7.685,0,0,1,1.7,3.072,12.112,12.112,0,0,1,.48,3.288,8.758,8.758,0,0,1-.576,3.144,8.885,8.885,0,0,1-1.656,2.736,9.458,9.458,0,0,1-2.64,2.064,9.19,9.19,0,0,1-3.48,1.032L142.416,0h-5.76l-8.64-14.976H122.88V0h-4.608Zm4.608,14.976h6.048a16.469,16.469,0,0,0,2.664-.216,7.158,7.158,0,0,0,2.352-.792,4.332,4.332,0,0,0,1.656-1.656,5.572,5.572,0,0,0,.624-2.808,5.572,5.572,0,0,0-.624-2.808,4.332,4.332,0,0,0-1.656-1.656,7.158,7.158,0,0,0-2.352-.792,16.469,16.469,0,0,0-2.664-.216H122.88ZM150-33.984h4.608V0H150ZM162.912-4.32l19.344-25.344H163.488v-4.32h24.528v4.32L168.768-4.32H188.3V0H162.912Z" transform="translate(274 95)" fill="#0072f0"/>
      <path id="Path_3847" data-name="Path 3847" d="M118.272-33.984h11.952a13.973,13.973,0,0,1,5.376.888,9.142,9.142,0,0,1,3.336,2.256,7.685,7.685,0,0,1,1.7,3.072,12.112,12.112,0,0,1,.48,3.288,8.758,8.758,0,0,1-.576,3.144,8.885,8.885,0,0,1-1.656,2.736,9.458,9.458,0,0,1-2.64,2.064,9.19,9.19,0,0,1-3.48,1.032L142.416,0h-5.76l-8.64-14.976H122.88V0h-4.608Zm4.608,14.976h6.048a16.469,16.469,0,0,0,2.664-.216,7.158,7.158,0,0,0,2.352-.792,4.332,4.332,0,0,0,1.656-1.656,5.572,5.572,0,0,0,.624-2.808,5.572,5.572,0,0,0-.624-2.808,4.332,4.332,0,0,0-1.656-1.656,7.158,7.158,0,0,0-2.352-.792,16.469,16.469,0,0,0-2.664-.216H122.88Z" transform="translate(394 95)" fill="#0072f0"/>
    </g>
  </g>
</svg>
