<svg xmlns="http://www.w3.org/2000/svg" width="21.363" height="18.99" viewBox="0 0 21.363 18.99">
  <path id="Icon_awesome-lock-open" data-name="Icon awesome-lock-open" d="M15.707,0a5.674,5.674,0,0,0-5.619,5.693V8.308H1.78A1.781,1.781,0,0,0,0,10.088v7.121a1.781,1.781,0,0,0,1.78,1.78H14.836a1.781,1.781,0,0,0,1.78-1.78V10.088a1.781,1.781,0,0,0-1.78-1.78h-1.78V5.671A2.671,2.671,0,1,1,18.4,5.637V8.6a.888.888,0,0,0,.89.89h1.187a.888.888,0,0,0,.89-.89V5.637A5.644,5.644,0,0,0,15.707,0Z" transform="translate(0 0)" fill="#fff"/>
</svg>
