<svg xmlns="http://www.w3.org/2000/svg" width="33.857" height="23.7" viewBox="0 0 33.857 23.7">
  <path id="Icon_awesome-users" data-name="Icon awesome-users" d="M5.079,12.407A3.386,3.386,0,1,0,1.693,9.021,3.389,3.389,0,0,0,5.079,12.407Zm23.7,0a3.386,3.386,0,1,0-3.386-3.386A3.389,3.389,0,0,0,28.779,12.407ZM30.471,14.1H27.086a3.376,3.376,0,0,0-2.386.984,7.738,7.738,0,0,1,3.973,5.787h3.492a1.691,1.691,0,0,0,1.693-1.693V17.486A3.389,3.389,0,0,0,30.471,14.1Zm-13.543,0A5.925,5.925,0,1,0,11,8.175,5.922,5.922,0,0,0,16.929,14.1Zm4.063,1.693h-.439a8.18,8.18,0,0,1-7.248,0h-.439a6.1,6.1,0,0,0-6.094,6.094v1.524A2.54,2.54,0,0,0,9.311,25.95H24.546a2.54,2.54,0,0,0,2.539-2.539V21.887A6.1,6.1,0,0,0,20.991,15.793ZM9.157,15.084A3.376,3.376,0,0,0,6.771,14.1H3.386A3.389,3.389,0,0,0,0,17.486v1.693a1.691,1.691,0,0,0,1.693,1.693H5.179A7.758,7.758,0,0,1,9.157,15.084Z" transform="translate(0 -2.25)" fill="#fff"/>
</svg>
